<?xml version="1.0" encoding="UTF-8" standalone="no"?>
<!-- Created with Inkscape (http://www.inkscape.org/) -->

<svg
   xmlns:dc="http://purl.org/dc/elements/1.1/"
   xmlns:cc="http://creativecommons.org/ns#"
   xmlns:rdf="http://www.w3.org/1999/02/22-rdf-syntax-ns#"
   xmlns:svg="http://www.w3.org/2000/svg"
   xmlns="http://www.w3.org/2000/svg"
   xmlns:xlink="http://www.w3.org/1999/xlink"
   xmlns:sodipodi="http://sodipodi.sourceforge.net/DTD/sodipodi-0.dtd"
   xmlns:inkscape="http://www.inkscape.org/namespaces/inkscape"
   width="744.09448819"
   height="1052.3622047"
   id="svg5360"
   version="1.1"
   inkscape:version="0.48.2 r9819"
   sodipodi:docname="Wheel.svg">
  <defs
     id="defs5362">
    <linearGradient
       inkscape:collect="always"
       id="linearGradient5928">
      <stop
         style="stop-color:#ffffff;stop-opacity:1;"
         offset="0"
         id="stop5930" />
      <stop
         style="stop-color:#ffffff;stop-opacity:0;"
         offset="1"
         id="stop5932" />
    </linearGradient>
    <linearGradient
       inkscape:collect="always"
       xlink:href="#linearGradient3905"
       id="linearGradient4052"
       gradientUnits="userSpaceOnUse"
       x1="342.03244"
       y1="568.83453"
       x2="342.03244"
       y2="484.11838" />
    <linearGradient
       id="linearGradient3905">
      <stop
         style="stop-color:#505050;stop-opacity:1;"
         offset="0"
         id="stop3907" />
      <stop
         style="stop-color:#000000;stop-opacity:0;"
         offset="1"
         id="stop3909" />
    </linearGradient>
    <linearGradient
       inkscape:collect="always"
       xlink:href="#linearGradient3942"
       id="linearGradient4056"
       gradientUnits="userSpaceOnUse"
       gradientTransform="translate(-69.477549,-360.2614)"
       x1="289.99414"
       y1="493.48056"
       x2="279.4408"
       y2="507.74988" />
    <linearGradient
       inkscape:collect="always"
       id="linearGradient3942">
      <stop
         style="stop-color:#ffffff;stop-opacity:1;"
         offset="0"
         id="stop3944" />
      <stop
         style="stop-color:#ffffff;stop-opacity:0;"
         offset="1"
         id="stop3946" />
    </linearGradient>
    <filter
       color-interpolation-filters="sRGB"
       inkscape:collect="always"
       id="filter4032">
      <feGaussianBlur
         inkscape:collect="always"
         stdDeviation="1.2770069"
         id="feGaussianBlur4034" />
    </filter>
    <linearGradient
       inkscape:collect="always"
       xlink:href="#linearGradient3933"
       id="linearGradient4054"
       gradientUnits="userSpaceOnUse"
       x1="340.3085"
       y1="436.0853"
       x2="340.3085"
       y2="549.02606" />
    <linearGradient
       id="linearGradient3933">
      <stop
         style="stop-color:#f1f0f2;stop-opacity:1;"
         offset="0"
         id="stop3935" />
      <stop
         style="stop-color:#f1f0f2;stop-opacity:0;"
         offset="1"
         id="stop3937" />
    </linearGradient>
    <radialGradient
       inkscape:collect="always"
       xlink:href="#linearGradient5928"
       id="radialGradient5934"
       cx="209.07143"
       cy="145.64789"
       fx="209.07143"
       fy="145.64789"
       r="100"
       gradientUnits="userSpaceOnUse" />
    <linearGradient
       id="linearGradient4176">
      <stop
         style="stop-color:#000000;stop-opacity:1;"
         offset="0"
         id="stop4178" />
      <stop
         style="stop-color:#f0c9c9;stop-opacity:1"
         offset="1"
         id="stop4180" />
    </linearGradient>
    <filter
       inkscape:collect="always"
       id="filter6236"
       x="-0.48192771"
       width="1.9638554"
       y="-0.48192771"
       height="1.9638554">
      <feGaussianBlur
         inkscape:collect="always"
         stdDeviation="40.160643"
         id="feGaussianBlur6238" />
    </filter>
  </defs>
  <sodipodi:namedview
     id="base"
     pagecolor="#ffffff"
     bordercolor="#666666"
     borderopacity="1.0"
     inkscape:pageopacity="0"
     inkscape:pageshadow="2"
     inkscape:zoom="1.4"
     inkscape:cx="-137.9109"
     inkscape:cy="947.79691"
     inkscape:document-units="px"
     inkscape:current-layer="layer1"
     showgrid="false"
     showborder="false"
     inkscape:window-width="1920"
     inkscape:window-height="1003"
     inkscape:window-x="-9"
     inkscape:window-y="-9"
     inkscape:window-maximized="1" />
  <metadata
     id="metadata5365">
    <rdf:RDF>
      <cc:Work
         rdf:about="">
        <dc:format>image/svg+xml</dc:format>
        <dc:type
           rdf:resource="http://purl.org/dc/dcmitype/StillImage" />
        <dc:title></dc:title>
      </cc:Work>
    </rdf:RDF>
  </metadata>
  <g
     inkscape:label="Layer 1"
     inkscape:groupmode="layer"
     id="layer1">
    <rect
       style="opacity:0.28979588;fill:#000000;fill-opacity:1;fill-rule:nonzero;stroke:none"
       id="rect5974"
       width="527.85712"
       height="502.85715"
       x="-54.857132"
       y="-105.78069" />
    <rect
       style="opacity:1;fill:url(#radialGradient5934);fill-opacity:1;fill-rule:nonzero;stroke:none;filter:url(#filter6236)"
       id="rect5418"
       width="200"
       height="200"
       x="109.07143"
       y="45.647892"
       inkscape:export-filename="C:\Users\riha\SkyDrive\GitHub\Rand\Design\Design\SampleApp\Content\wheel-center.png"
       inkscape:export-xdpi="90"
       inkscape:export-ydpi="90" />
    <path
       transform="matrix(0.90571909,0,0,0.90571909,-100.11934,-312.86756)"
       d="m 369.75394,506.24466 a 28.377932,28.377932 0 1 1 -56.75586,0 28.377932,28.377932 0 1 1 56.75586,0 z"
       sodipodi:ry="28.377932"
       sodipodi:rx="28.377932"
       sodipodi:cy="506.24466"
       sodipodi:cx="341.37601"
       id="path4050"
       style="opacity:0.34456931;fill:none;stroke:#464646;stroke-width:0.3378531;stroke-miterlimit:4;stroke-opacity:1;stroke-dasharray:none"
       sodipodi:type="arc"
       inkscape:export-filename="C:\Users\riha\SkyDrive\GitHub\Rand\Design\Design\SampleApp\Content\wheel-center.png"
       inkscape:export-xdpi="90"
       inkscape:export-ydpi="90" />
    <path
       transform="matrix(0.69620597,0,0,0.69620597,-28.596589,-206.80266)"
       d="m 369.75394,506.24466 a 28.377932,28.377932 0 1 1 -56.75586,0 28.377932,28.377932 0 1 1 56.75586,0 z"
       sodipodi:ry="28.377932"
       sodipodi:rx="28.377932"
       sodipodi:cy="506.24466"
       sodipodi:cx="341.37601"
       id="path4044"
       style="fill:url(#linearGradient4054);fill-opacity:1;stroke:none"
       sodipodi:type="arc"
       inkscape:export-filename="C:\Users\riha\SkyDrive\GitHub\Rand\Design\Design\SampleApp\Content\wheel-center.png"
       inkscape:export-xdpi="90"
       inkscape:export-ydpi="90" />
    <path
       sodipodi:type="arc"
       style="fill:#000000;fill-opacity:1;stroke:none;filter:url(#filter4032)"
       id="path4048"
       sodipodi:cx="341.37601"
       sodipodi:cy="506.24466"
       sodipodi:rx="28.377932"
       sodipodi:ry="28.377932"
       d="m 369.75394,506.24466 a 28.377932,28.377932 0 1 1 -56.75586,0 28.377932,28.377932 0 1 1 56.75586,0 z"
       transform="matrix(0.90571909,0,0,0.90571909,-100.61934,-311.86756)"
       inkscape:export-filename="C:\Users\riha\SkyDrive\GitHub\Rand\Design\Design\SampleApp\Content\wheel-center.png"
       inkscape:export-xdpi="90"
       inkscape:export-ydpi="90" />
    <path
       transform="matrix(0.90571909,0,0,0.90571909,-100.11934,-312.86756)"
       d="m 369.75394,506.24466 a 28.377932,28.377932 0 1 1 -56.75586,0 28.377932,28.377932 0 1 1 56.75586,0 z"
       sodipodi:ry="28.377932"
       sodipodi:rx="28.377932"
       sodipodi:cy="506.24466"
       sodipodi:cx="341.37601"
       id="path4038"
       style="fill:#f1f0f2;fill-opacity:1;stroke:none"
       sodipodi:type="arc"
       inkscape:export-filename="C:\Users\riha\SkyDrive\GitHub\Rand\Design\Design\SampleApp\Content\wheel-center.png"
       inkscape:export-xdpi="90"
       inkscape:export-ydpi="90" />
    <path
       sodipodi:type="arc"
       style="fill:#9155a3;fill-opacity:1;stroke:none"
       id="path4040"
       sodipodi:cx="341.37601"
       sodipodi:cy="506.24466"
       sodipodi:rx="28.377932"
       sodipodi:ry="28.377932"
       d="m 369.75394,506.24466 a 28.377932,28.377932 0 1 1 -56.75586,0 28.377932,28.377932 0 1 1 56.75586,0 z"
       transform="matrix(0.69620597,0,0,0.69620597,-28.596589,-206.80266)"
       inkscape:export-filename="C:\Users\riha\SkyDrive\GitHub\Rand\Design\Design\SampleApp\Content\wheel-center.png"
       inkscape:export-xdpi="90"
       inkscape:export-ydpi="90" />
    <path
       sodipodi:nodetypes="sssss"
       inkscape:connector-curvature="0"
       id="path4046"
       d="m 225.33318,147.71765 c -3.01946,5.22985 -10.69243,0.0232 -15.92228,-2.99629 -5.22986,-3.01946 -14.06263,-7.31608 -11.04318,-12.54593 3.01946,-5.22985 14.166,-4.94079 19.39586,-1.92133 5.22985,3.01945 10.58906,12.23369 7.5696,17.46355 z"
       style="opacity:0.4644195;fill:url(#linearGradient4056);fill-opacity:1;stroke:none"
       inkscape:export-filename="C:\Users\riha\SkyDrive\GitHub\Rand\Design\Design\SampleApp\Content\wheel-center.png"
       inkscape:export-xdpi="90"
       inkscape:export-ydpi="90" />
    <path
       sodipodi:type="arc"
       style="opacity:0.71037454;fill:url(#linearGradient4052);fill-opacity:1;stroke:none"
       id="path4042"
       sodipodi:cx="341.37601"
       sodipodi:cy="506.24466"
       sodipodi:rx="28.377932"
       sodipodi:ry="28.377932"
       d="m 369.75394,506.24466 a 28.377932,28.377932 0 1 1 -56.75586,0 28.377932,28.377932 0 1 1 56.75586,0 z"
       transform="matrix(0.90571909,0,0,0.90571909,-100.11934,-312.86756)"
       inkscape:export-filename="C:\Users\riha\SkyDrive\GitHub\Rand\Design\Design\SampleApp\Content\wheel-center.png"
       inkscape:export-xdpi="90"
       inkscape:export-ydpi="90" />
    <path
       style="fill:none;stroke:none"
       d="m -131.42857,118.49221 c 0,0 6.70474,-14.23705 10.84375,-20.90625 6.82295,-10.993834 22.937497,-31.312504 22.937497,-31.312504 -5.808087,1.42268 -11.667197,2.6762 -17.468747,4.125 l -6.78125,-93.843746 -9.53125,0 -9.53125,0 -6.78125,93.843746 c -5.80155,-1.4488 -11.66066,-2.70232 -17.46875,-4.125 0,0 16.11455,20.31867 22.9375,31.312504 4.13901,6.6692 10.84375,20.90625 10.84375,20.90625 z"
       id="rect4219"
       inkscape:connector-curvature="0"
       inkscape:export-filename="C:\Users\riha\SkyDrive\GitHub\Rand\Design\Design\SampleApp\Content\arrow.png"
       inkscape:export-xdpi="90"
       inkscape:export-ydpi="90" />
    <path
       sodipodi:nodetypes="csczzzzcsc"
       inkscape:export-ydpi="90"
       inkscape:export-xdpi="90"
       inkscape:export-filename="C:\Users\riha\SkyDrive\GitHub\Rand\Design\Design\SampleApp\Content\arrow.png"
       inkscape:connector-curvature="0"
       id="path6090"
       d="m -119.99999,81.206495 c 0,0 3.72761,-7.072402 6.02876,-10.385399 3.79334,-5.461299 12.75249,-15.55481 12.75249,-15.55481 -3.22911,0.706731 -8.09931,0.679131 -9.71204,1.038984 -1.61273,0.359853 -2.0038,-45.607703 -3.77015,-45.607703 -1.76635,0 -8.83177,0 -10.59812,0 -1.76635,0 -2.15741,45.967556 -3.77015,45.607703 -1.61273,-0.359853 -6.48294,-0.332253 -9.71204,-1.038984 0,0 8.95915,10.093511 12.75249,15.55481 2.30115,3.312997 6.02876,10.385399 6.02876,10.385399 z"
       style="opacity:0.5;fill:#000000;fill-opacity:1;stroke:none" />
    <path
       style="fill:#000000;fill-opacity:1;stroke:#ffffff;opacity:1;stroke-opacity:0.41203704"
       d="m -117.99999,79.206494 c 0,0 3.72761,-7.072402 6.02876,-10.385399 3.79334,-5.461299 12.75248,-15.55481 12.75248,-15.55481 -3.2291,0.706731 -8.0993,0.679131 -9.71203,1.038984 -1.61273,0.359853 -2.0038,-45.6077014 -3.77015,-45.6077014 -1.76635,0 -8.83177,0 -10.59812,0 -1.76635,0 -2.15741,45.9675544 -3.77015,45.6077014 -1.61273,-0.359853 -6.48294,-0.332253 -9.71204,-1.038984 0,0 8.95915,10.093511 12.75249,15.55481 2.30115,3.312997 6.02876,10.385399 6.02876,10.385399 z"
       id="path4334"
       inkscape:connector-curvature="0"
       inkscape:export-filename="C:\Users\riha\SkyDrive\GitHub\Rand\Design\Design\SampleApp\Content\arrow.png"
       inkscape:export-xdpi="90"
       inkscape:export-ydpi="90"
       sodipodi:nodetypes="csczzzzcsc" />
    <text
       xml:space="preserve"
       style="font-size:40px;font-style:normal;font-weight:normal;line-height:125%;letter-spacing:0px;word-spacing:0px;fill:#000000;fill-opacity:1;stroke:none;font-family:Sans"
       x="-630"
       y="62.362183"
       id="text3017"
       sodipodi:linespacing="125%"><tspan
         sodipodi:role="line"
         id="tspan3019"></tspan></text>
  </g>
</svg>
